<svg width="37" height="37" viewBox="0 0 37 37" fill="none" xmlns="http://www.w3.org/2000/svg">
<path d="M7.68552 9.28697C3.45374 14.372 4.09696 21.9316 9.15335 26.1396C13.3022 29.5922 19.2406 29.787 23.6626 26.6357C24.0357 26.7147 24.796 26.9614 25.2729 27.1267C27.0128 27.7255 28.5143 28.2418 29.3113 27.2841C30.1083 26.3263 29.3469 24.9208 28.4609 23.2958C28.2118 22.8569 27.8241 22.1097 27.7046 21.7787C29.9364 16.8819 28.6283 11.1232 24.5313 7.71371C19.468 3.46138 11.9173 4.20196 7.68552 9.28697ZM25.2336 20.6872C24.7699 21.6135 25.4257 22.7768 26.2199 24.2483C26.3445 24.4677 26.5279 24.7748 26.6405 25.0614C26.3571 24.98 26.0478 24.877 25.8094 24.7943C24.2371 24.2577 22.974 23.8242 22.1473 24.4484C18.6298 27.0402 13.8868 26.9912 10.6715 24.3153C6.78195 21.0785 6.38906 15.1166 9.78587 11.0349C13.1827 6.9532 19.1167 6.25666 23.0063 9.49355C26.1957 12.1478 27.1174 16.7358 25.2336 20.6872Z" fill="#E5E5E5" fill-opacity="0.9"/>
</svg>
