<svg width="24" height="27" viewBox="0 0 24 27" fill="none" xmlns="http://www.w3.org/2000/svg">
<path d="M0 8.72727C0 9.30593 0.229869 9.86088 0.63904 10.2701C1.04821 10.6792 1.60316 10.9091 2.18182 10.9091V21.8182C2.18182 22.9755 2.64156 24.0854 3.4599 24.9037C4.27824 25.7221 5.38815 26.1818 6.54545 26.1818H17.4545C18.6119 26.1818 19.7218 25.7221 20.5401 24.9037C21.3584 24.0854 21.8182 22.9755 21.8182 21.8182V10.9091C22.3968 10.9091 22.9518 10.6792 23.361 10.2701C23.7701 9.86088 24 9.30593 24 8.72727V6.54545C24 5.9668 23.7701 5.41185 23.361 5.00268C22.9518 4.59351 22.3968 4.36364 21.8182 4.36364H17.4545V2.18182C17.4545 1.60316 17.2247 1.04821 16.8155 0.63904C16.4063 0.22987 15.8514 0 15.2727 0H8.72727C8.14862 0 7.59367 0.22987 7.18449 0.63904C6.77532 1.04821 6.54545 1.60316 6.54545 2.18182V4.36364H2.18182C1.60316 4.36364 1.04821 4.59351 0.63904 5.00268C0.229869 5.41185 0 5.9668 0 6.54545V8.72727ZM19.6364 21.8182C19.6364 22.3968 19.4065 22.9518 18.9973 23.361C18.5882 23.7701 18.0332 24 17.4545 24H6.54545C5.9668 24 5.41185 23.7701 5.00268 23.361C4.59351 22.9518 4.36364 22.3968 4.36364 21.8182V10.9091H19.6364V21.8182ZM8.72727 2.18182H15.2727V4.36364H8.72727V2.18182ZM2.18182 6.54545H21.8182V8.72727H2.18182V6.54545Z" fill="#E5E5E5" fill-opacity="0.9"/>
</svg>
