<svg width="20" height="24" viewBox="0 0 20 24" fill="none" xmlns="http://www.w3.org/2000/svg">
<path d="M0 0.613316V23.3827C1.98131e-05 23.4934 0.0326114 23.602 0.0943177 23.6971C0.156024 23.7921 0.244544 23.87 0.350487 23.9225C0.45643 23.975 0.575846 24.0002 0.696067 23.9953C0.816288 23.9904 0.932831 23.9557 1.03333 23.8948L9.62666 18.6509C9.73621 18.5837 9.86496 18.5478 9.99666 18.5478C10.1284 18.5478 10.2571 18.5837 10.3667 18.6509L18.96 23.8948C19.0606 23.9573 19.1778 23.9934 19.299 23.9992C19.4203 24.0049 19.5409 23.9801 19.6479 23.9274C19.755 23.8747 19.8443 23.7961 19.9064 23.7001C19.9684 23.6041 20.0008 23.4944 20 23.3827V0.613316C20 0.450655 19.9297 0.294655 19.8047 0.179636C19.6797 0.0646172 19.5101 0 19.3333 0H0.666666C0.489855 0 0.320286 0.0646172 0.195262 0.179636C0.070238 0.294655 0 0.450655 0 0.613316ZM17.2967 21.0398L10.37 16.811C10.2604 16.7438 10.1317 16.7079 9.99999 16.7079C9.86829 16.7079 9.73955 16.7438 9.62999 16.811L2.70333 21.0398C2.60279 21.1015 2.4859 21.1369 2.36518 21.1422C2.24445 21.1476 2.12442 21.1226 2.01794 21.07C1.91145 21.0174 1.82252 20.9391 1.76064 20.8436C1.69877 20.7481 1.66628 20.6389 1.66667 20.5277V2.14661C1.66667 1.98395 1.7369 1.82795 1.86193 1.71293C1.98695 1.59791 2.15652 1.53329 2.33333 1.53329H17.6667C17.8435 1.53329 18.013 1.59791 18.1381 1.71293C18.2631 1.82795 18.3333 1.98395 18.3333 2.14661V20.5277C18.3337 20.6389 18.3012 20.7481 18.2393 20.8436C18.1775 20.9391 18.0885 21.0174 17.982 21.07C17.8756 21.1226 17.7555 21.1476 17.6348 21.1422C17.5141 21.1369 17.3972 21.1015 17.2967 21.0398V21.0398Z" fill="#E5E5E5" fill-opacity="0.9"/>
</svg>
