<svg width="5" height="19" viewBox="0 0 5 19" fill="none" xmlns="http://www.w3.org/2000/svg">
<path fill-rule="evenodd" clip-rule="evenodd" d="M2.32536 7.12886C3.5311 7.12886 4.56459 8.21497 4.56459 9.57261C4.56459 10.8397 3.5311 11.9258 2.32536 11.9258C1.03349 11.9258 0 10.8397 0 9.57261C0 8.21497 1.03349 7.12886 2.32536 7.12886ZM2.32536 0.0691528C3.5311 0.0691528 4.56459 1.15526 4.56459 2.5129C4.56459 3.87054 3.5311 4.95664 2.32536 4.95664C1.03349 4.95664 0 3.87054 0 2.5129C0 1.15526 1.03349 0.0691528 2.32536 0.0691528ZM2.32536 14.1886C3.5311 14.1886 4.56459 15.2747 4.56459 16.5418C4.56459 17.8994 3.5311 18.9856 2.32536 18.9856C1.03349 18.9856 0 17.8994 0 16.5418C0 15.2747 1.03349 14.1886 2.32536 14.1886Z" fill="#E5E5E5" fill-opacity="0.9"/>
</svg>
