<svg width="23" height="24" viewBox="0 0 23 24" fill="none" xmlns="http://www.w3.org/2000/svg">
<path d="M10.9833 0.15799L0.316677 8.1581C0.119637 8.30752 -0.00126994 8.55251 1.00634e-05 8.79979V23.2C6.33967e-05 23.6188 0.38113 23.9999 0.80001 24H8.00001C8.41889 23.9999 8.79996 23.6188 8.80001 23.2V19.2C8.80001 17.7088 9.9755 16.5333 11.4667 16.5333C12.9579 16.5333 14.1333 17.7088 14.1333 19.2V23.2C14.1334 23.6188 14.5145 23.9999 14.9333 24H22.1333C22.5522 23.9999 22.9333 23.6188 22.9333 23.2V8.79979C22.9333 8.55251 22.8137 8.30752 22.6167 8.1581L11.95 0.15799C11.6007 -0.0638288 11.3095 -0.0411941 10.9833 0.15799V0.15799ZM11.4667 1.79967L21.3333 9.19979V22.4H15.7333V19.2C15.7333 16.8501 13.8166 14.9333 11.4667 14.9333C9.11678 14.9333 7.20001 16.8501 7.20001 19.2V22.4H1.60001V9.19979L11.4667 1.79967Z" fill="#E5E5E5" fill-opacity="0.9"/>
</svg>
