<svg width="30" height="30" viewBox="0 0 30 30" fill="none" xmlns="http://www.w3.org/2000/svg">
<path fill-rule="evenodd" clip-rule="evenodd" d="M26.3698 3.1198C26.3696 3.11984 26.3699 3.11977 26.3698 3.1198L3.54038 9.7627C3.03041 9.91072 2.92635 10.6138 3.39101 10.8999L12.3228 16.3973L19.9715 8.69745C20.3972 8.2689 21.0898 8.26659 21.5183 8.6923C21.9469 9.11802 21.9492 9.81054 21.5235 10.2391L13.8651 17.9486L19.2419 26.8573C19.5168 27.3129 20.1979 27.2333 20.3532 26.7108L27.1272 3.90362L27.1275 3.90261C27.2725 3.41627 26.8253 2.98828 26.3698 3.1198ZM11.6885 18.5755L17.369 27.9876C17.369 27.9876 17.369 27.9876 17.369 27.9876C18.6322 30.0807 21.7568 29.666 22.45 27.3341L29.2239 4.52746C29.8565 2.40518 27.9027 0.398919 25.7617 1.01853L2.92992 7.6621C2.93012 7.66205 2.92973 7.66216 2.92992 7.6621C0.585493 8.34308 0.174837 11.4888 2.24424 12.7627L11.6885 18.5755Z" fill="white" fill-opacity="0.9"/>
</svg>
