<svg width="24" height="24" viewBox="0 0 24 24" fill="none" xmlns="http://www.w3.org/2000/svg">
<path d="M22.0811 2.4386C20.848 0.880659 19.1787 0.00596003 17.4384 0.00596003C15.6982 0.00596003 14.0288 0.880659 12.7958 2.4386L11.9993 3.449L11.2029 2.4386C10.5936 1.66547 9.87011 1.05219 9.07391 0.633771C8.2777 0.215356 7.42434 8.14626e-09 6.56253 0C5.70073 -8.14626e-09 4.84736 0.215356 4.05116 0.633771C3.25496 1.05219 2.53151 1.66547 1.92212 2.4386C1.31273 3.21173 0.829341 4.12957 0.499543 5.13971C0.169745 6.14986 -6.42094e-09 7.23252 0 8.3259C6.42094e-09 9.41927 0.169745 10.5019 0.499543 11.5121C0.829341 12.5222 1.31273 13.4401 1.92212 14.2132L3.04433 15.6312C3.05523 15.6479 3.06735 15.6633 3.08053 15.6771L10.8771 23.4962C11.1982 23.8223 11.5972 24 12.0084 24C12.4196 24 12.8186 23.8223 13.1397 23.4962L20.9182 15.6771L20.9589 15.6312L22.0811 14.2132C23.3099 12.6505 24 10.5333 24 8.3259C24 6.11853 23.3099 4.00129 22.0811 2.4386V2.4386ZM21.4431 13.398L20.339 14.793L12.5605 22.5949C12.4007 22.7551 12.203 22.8422 11.9993 22.8422C11.7957 22.8422 11.598 22.7551 11.4382 22.5949L3.66426 14.793L2.56015 13.4037C1.49625 12.0578 0.897368 10.2307 0.895247 8.32456C0.893125 6.41839 1.48794 4.58922 2.54884 3.23945C3.60974 1.88969 5.04981 1.12988 6.55227 1.12719C8.05473 1.1245 9.49649 1.87914 10.5604 3.2251L11.6781 4.64311C11.7201 4.69691 11.7702 4.73962 11.8253 4.76877C11.8805 4.79791 11.9396 4.81292 11.9993 4.81292C12.0591 4.81292 12.1182 4.79791 12.1734 4.76877C12.2285 4.73962 12.2786 4.69691 12.3206 4.64311L13.4383 3.2251C14.5016 1.87838 15.943 1.1227 17.4455 1.12432C18.9479 1.12593 20.3884 1.88471 21.4499 3.23371C22.5114 4.58272 23.107 6.41146 23.1057 8.31763C23.1044 10.2238 22.5064 12.0513 21.4431 13.398V13.398Z" fill="white"/>
</svg>
