<svg width="104" height="28" viewBox="0 0 104 28" fill="none" xmlns="http://www.w3.org/2000/svg">
<path d="M45.9896 20.536C46.1336 18.904 46.2056 16.744 46.2056 14.056C46.2056 11.352 46.1256 9.36799 45.9656 8.10399L45.0296 8.03199C44.9816 7.83999 44.9576 7.59199 44.9576 7.28799C44.9576 6.98399 44.9656 6.78399 44.9816 6.68799C46.0056 6.67199 46.9176 6.59999 47.7176 6.47199C48.5176 6.34399 49.3656 6.27999 50.2616 6.27999C51.8776 6.27999 53.1016 6.65599 53.9336 7.40799C54.7816 8.14399 55.2056 9.26399 55.2056 10.768C55.2056 12.272 54.6936 13.408 53.6696 14.176C55.3816 14.864 56.2376 16.088 56.2376 17.848C56.2376 19.336 55.7736 20.464 54.8456 21.232C53.9176 21.984 52.5496 22.36 50.7416 22.36C49.7336 22.36 48.7976 22.296 47.9336 22.168C46.4136 22.056 45.4296 21.984 44.9816 21.952C44.9656 21.856 44.9576 21.664 44.9576 21.376C44.9576 21.088 44.9816 20.832 45.0296 20.608L45.9896 20.536ZM49.3976 13.072C49.7496 13.312 50.2616 13.432 50.9336 13.432C51.6216 13.432 52.1576 13.208 52.5416 12.76C52.9256 12.296 53.1176 11.608 53.1176 10.696C53.1176 9.76799 52.8616 9.03199 52.3496 8.48799C51.8376 7.92799 51.1096 7.64799 50.1656 7.64799C49.5736 7.64799 48.9176 7.79199 48.1976 8.07999C48.0696 9.40799 48.0056 11.344 48.0056 13.888C48.0056 16.432 48.0696 18.52 48.1976 20.152C49.1416 20.52 49.9976 20.704 50.7656 20.704C53.0216 20.704 54.1496 19.752 54.1496 17.848C54.1496 16.248 53.4056 15.272 51.9176 14.92C51.4376 15 50.9656 15.04 50.5016 15.04C50.0536 15.04 49.5176 14.92 48.8936 14.68C48.8936 13.944 49.0616 13.408 49.3976 13.072Z" fill="#E5E5E5" fill-opacity="0.9"/>
<path d="M62.9143 16.672C62.1303 16.672 61.4023 16.632 60.7303 16.552C60.7623 19.272 61.6663 20.632 63.4423 20.632C64.3383 20.632 65.3303 20.136 66.4183 19.144C66.8823 19.624 67.1783 20.256 67.3063 21.04C65.9943 21.92 64.6023 22.36 63.1303 22.36C61.6583 22.36 60.5623 21.856 59.8423 20.848C59.1223 19.824 58.7623 18.328 58.7623 16.36C58.7623 14.392 59.1623 12.928 59.9623 11.968C60.7783 11.008 61.9303 10.528 63.4183 10.528C64.5223 10.528 65.4343 10.864 66.1543 11.536C66.8743 12.208 67.2343 13.032 67.2343 14.008C67.2503 14.984 67.1703 15.68 66.9943 16.096C65.7943 16.48 64.4343 16.672 62.9143 16.672ZM63.2503 11.872C61.7623 11.872 60.9303 12.968 60.7543 15.16C61.4743 15.24 62.2663 15.28 63.1303 15.28C63.9943 15.28 64.6663 15.2 65.1463 15.04C65.2103 14.64 65.2423 14.344 65.2423 14.152C65.2423 13.448 65.0583 12.896 64.6903 12.496C64.3383 12.08 63.8583 11.872 63.2503 11.872Z" fill="#E5E5E5" fill-opacity="0.9"/>
<path d="M73.8145 10.528C74.9345 10.528 75.8225 10.792 76.4785 11.32C77.1505 11.848 77.4865 12.536 77.4865 13.384C77.4865 14.216 77.1105 14.632 76.3585 14.632C75.9105 14.632 75.5585 14.496 75.3025 14.224C75.0625 13.936 74.9425 13.6 74.9425 13.216C74.9425 12.832 75.0065 12.512 75.1345 12.256C74.7505 11.952 74.2945 11.8 73.7665 11.8C73.2385 11.8 72.7985 11.928 72.4465 12.184C72.1105 12.44 71.9425 12.816 71.9425 13.312C71.9425 13.808 72.1345 14.24 72.5185 14.608C72.9185 14.976 73.3985 15.28 73.9585 15.52C74.5185 15.744 75.0785 15.984 75.6385 16.24C76.1985 16.48 76.6705 16.832 77.0545 17.296C77.4545 17.744 77.6545 18.304 77.6545 18.976C77.6545 20.016 77.3025 20.84 76.5985 21.448C75.9105 22.056 74.9665 22.36 73.7665 22.36C72.5665 22.36 71.5825 22.104 70.8145 21.592C70.0625 21.08 69.6865 20.408 69.6865 19.576V19.48C69.6865 18.616 70.0625 18.184 70.8145 18.184C71.2625 18.184 71.6065 18.328 71.8465 18.616C72.1025 18.888 72.2305 19.208 72.2305 19.576C72.2305 19.944 72.1905 20.232 72.1105 20.44C72.4305 20.648 72.9345 20.752 73.6225 20.752C74.3265 20.752 74.8545 20.632 75.2065 20.392C75.5745 20.152 75.7585 19.824 75.7585 19.408C75.7585 18.976 75.5585 18.592 75.1585 18.256C74.7745 17.92 74.3025 17.64 73.7425 17.416C73.1825 17.176 72.6225 16.928 72.0625 16.672C71.5025 16.4 71.0225 16.016 70.6225 15.52C70.2385 15.024 70.0465 14.432 70.0465 13.744C70.0465 12.752 70.3905 11.968 71.0785 11.392C71.7825 10.816 72.6945 10.528 73.8145 10.528Z" fill="#E5E5E5" fill-opacity="0.9"/>
<path d="M80.9501 18.112C80.9501 18.112 80.9661 16.328 80.9981 12.76C80.9981 12.52 80.9901 12.336 80.9741 12.208C80.3021 12.208 79.8221 12.216 79.5341 12.232C79.4381 11.976 79.3901 11.728 79.3901 11.488C79.3901 11.232 79.4061 11.04 79.4381 10.912H80.9021L80.7821 9.13599C81.1821 9.00799 81.5981 8.94399 82.0301 8.94399C82.4781 8.94399 82.8461 8.97599 83.1341 9.03999L82.9181 10.888C83.7981 10.872 84.6861 10.824 85.5821 10.744C85.6781 10.952 85.7261 11.184 85.7261 11.44C85.7261 11.68 85.6941 11.976 85.6301 12.328C85.0381 12.296 84.1021 12.264 82.8221 12.232C82.7901 12.552 82.7741 13.024 82.7741 13.648V18.52C82.7741 18.936 82.7901 19.28 82.8221 19.552C82.8701 19.808 82.9741 20.048 83.1341 20.272C83.3101 20.48 83.5581 20.584 83.8781 20.584C84.5821 20.584 85.2541 20.336 85.8941 19.84C86.2301 20.32 86.3981 20.968 86.3981 21.784C85.5181 22.168 84.7501 22.36 84.0941 22.36C83.4541 22.36 82.9421 22.272 82.5581 22.096C82.1741 21.936 81.8781 21.744 81.6701 21.52C81.4621 21.28 81.3021 20.952 81.1901 20.536C81.0301 19.944 80.9501 19.136 80.9501 18.112Z" fill="#E5E5E5" fill-opacity="0.9"/>
<path d="M89.1735 20.608C89.3175 19.04 89.3895 17.608 89.3895 16.312C89.3895 15 89.3255 13.64 89.1975 12.232L88.3095 12.16C88.2615 11.888 88.2375 11.632 88.2375 11.392C88.2375 11.136 88.2455 10.944 88.2615 10.816C89.1895 10.784 90.1815 10.712 91.2375 10.6L91.3575 10.72C91.2135 11.664 91.1415 13.248 91.1415 15.472C91.1415 17.696 91.2135 19.408 91.3575 20.608L92.2455 20.68C92.2775 20.936 92.2935 21.16 92.2935 21.352C92.2935 21.528 92.2695 21.752 92.2215 22.024C91.6615 22.008 91.0135 22 90.2775 22C89.5415 22 88.9015 22.008 88.3575 22.024C88.3095 21.784 88.2855 21.536 88.2855 21.28C88.2855 21.024 88.3015 20.824 88.3335 20.68L89.1735 20.608ZM91.5975 7.28799C91.5975 8.27999 91.0855 8.77599 90.0615 8.77599C89.2615 8.77599 88.8615 8.36799 88.8615 7.55199C88.8615 6.54399 89.3735 6.03999 90.3975 6.03999C91.1975 6.03999 91.5975 6.45599 91.5975 7.28799Z" fill="#E5E5E5" fill-opacity="0.9"/>
<path d="M99.0062 16.672C98.2222 16.672 97.4942 16.632 96.8222 16.552C96.8542 19.272 97.7582 20.632 99.5342 20.632C100.43 20.632 101.422 20.136 102.51 19.144C102.974 19.624 103.27 20.256 103.398 21.04C102.086 21.92 100.694 22.36 99.2222 22.36C97.7502 22.36 96.6542 21.856 95.9342 20.848C95.2142 19.824 94.8542 18.328 94.8542 16.36C94.8542 14.392 95.2542 12.928 96.0542 11.968C96.8702 11.008 98.0222 10.528 99.5102 10.528C100.614 10.528 101.526 10.864 102.246 11.536C102.966 12.208 103.326 13.032 103.326 14.008C103.342 14.984 103.262 15.68 103.086 16.096C101.886 16.48 100.526 16.672 99.0062 16.672ZM99.3422 11.872C97.8542 11.872 97.0222 12.968 96.8462 15.16C97.5662 15.24 98.3582 15.28 99.2222 15.28C100.086 15.28 100.758 15.2 101.238 15.04C101.302 14.64 101.334 14.344 101.334 14.152C101.334 13.448 101.15 12.896 100.782 12.496C100.43 12.08 99.9502 11.872 99.3422 11.872Z" fill="#E5E5E5" fill-opacity="0.9"/>
<path d="M0.537722 7.66194H1.99544V8.90899C2.00257 9.63486 2.15167 10.3519 2.43397 11.018C2.71628 11.6841 3.12608 12.2858 3.63926 12.7875C4.11821 13.2659 4.68351 13.6445 5.30375 13.9025V16.1588C4.15854 16.5306 3.15799 17.2637 2.44568 18.2529C1.73338 19.2421 1.34593 20.4365 1.33895 21.6648V26.9489C1.33895 27.089 1.39341 27.2234 1.49035 27.3225C1.5873 27.4216 1.71878 27.4773 1.85587 27.4773C1.99297 27.4773 2.12445 27.4216 2.22139 27.3225C2.31834 27.2234 2.3728 27.089 2.3728 26.9489V21.6648C2.37705 20.6017 2.72965 19.5707 3.3743 18.7364C4.01895 17.9022 4.91847 17.3128 5.92922 17.0623C6.04296 17.0324 6.14332 16.9637 6.21379 16.8677C6.28426 16.7717 6.32063 16.6539 6.31692 16.5339V14.1931C6.58497 14.2406 6.85643 14.2654 7.12848 14.2671H7.25772C7.47072 14.2592 7.68306 14.2381 7.89353 14.2037V16.5551C7.88982 16.6751 7.92619 16.7928 7.99666 16.8888C8.06713 16.9849 8.16749 17.0535 8.28122 17.0835C9.29334 17.3279 10.1962 17.912 10.8455 18.7424C11.4948 19.5729 11.8532 20.6017 11.8635 21.6648V26.9489C11.8635 27.089 11.918 27.2234 12.0149 27.3225C12.1118 27.4216 12.2433 27.4773 12.3804 27.4773C12.5175 27.4773 12.649 27.4216 12.7459 27.3225C12.8429 27.2234 12.8973 27.089 12.8973 26.9489V21.6648C12.897 20.9408 12.7619 20.2235 12.4993 19.5512H17.1516V26.9489C17.1516 27.089 17.2061 27.2234 17.303 27.3225C17.4 27.4216 17.5314 27.4773 17.6685 27.4773C17.8056 27.4773 17.9371 27.4216 18.0341 27.3225C18.131 27.2234 18.1855 27.089 18.1855 26.9489V19.0227C18.1855 18.8826 18.131 18.7482 18.0341 18.6491C17.9371 18.55 17.8056 18.4943 17.6685 18.4943H11.9824C11.5702 17.8688 11.0436 17.3305 10.4316 16.9091H21.592C21.7291 16.9091 21.8606 16.8534 21.9575 16.7543C22.0544 16.6552 22.1089 16.5208 22.1089 16.3807V14.1931C22.377 14.2406 22.6484 14.2654 22.9205 14.2671H23.0704C23.2834 14.2592 23.4957 14.2381 23.7062 14.2037V16.5551C23.7025 16.6751 23.7388 16.7928 23.8093 16.8888C23.8798 16.9849 23.9802 17.0535 24.0939 17.0835C25.1012 17.333 25.9982 17.9193 26.6425 18.7492C27.2868 19.5792 27.6415 20.6053 27.6503 21.6648V26.9489C27.6503 27.089 27.7048 27.2234 27.8017 27.3225C27.8987 27.4216 28.0301 27.4773 28.1672 27.4773C28.3043 27.4773 28.4358 27.4216 28.5328 27.3225C28.6297 27.2234 28.6842 27.089 28.6842 26.9489V21.6648C28.6793 20.4376 28.2946 19.2435 27.5852 18.2534C26.8758 17.2634 25.878 16.5283 24.7349 16.1535V13.9236C25.402 13.6673 26.0095 13.2713 26.5183 12.7611C26.9952 12.2874 27.3741 11.7205 27.6325 11.0942C27.8909 10.4679 28.0235 9.79482 28.0225 9.11507V7.39774C28.5003 7.18708 28.9195 6.85844 29.2424 6.44131C29.5719 6.01572 29.8026 5.51925 29.9173 4.9893C30.0319 4.45936 30.0274 3.90973 29.9041 3.38182C29.8259 3.01603 29.6726 2.6714 29.4542 2.37077C29.2359 2.07015 28.9576 1.8204 28.6376 1.63807C28.1652 1.37198 27.6163 1.28408 27.0869 1.38972C26.181 0.49923 24.9733 0.00127467 23.7165 0H21.5093C20.4329 0.0265112 19.3925 0.40148 18.5379 1.07092C17.6833 1.74037 17.0585 2.66975 16.7536 3.72529L15.8335 6.98558C15.8104 7.06607 15.8065 7.15101 15.8219 7.23338C15.8373 7.31575 15.8717 7.39318 15.9222 7.45927C15.9727 7.52536 16.0379 7.57821 16.1124 7.61345C16.1868 7.64869 16.2684 7.66531 16.3504 7.66194H17.8081V8.90899C17.8092 9.63149 17.951 10.3465 18.2252 11.0124C18.4994 11.6783 18.9006 12.2818 19.4054 12.7875C19.8859 13.2664 20.453 13.6451 21.0751 13.9025V15.8523H8.94805V13.9236C9.617 13.6678 10.2262 13.2718 10.7366 12.7611C11.2133 12.2872 11.5921 11.7203 11.8504 11.094C12.1088 10.4677 12.2416 9.79478 12.2408 9.11507V7.39774C12.717 7.19157 13.136 6.8685 13.4608 6.45717C13.7903 6.03157 14.021 5.5351 14.1356 5.00516C14.2502 4.47521 14.2457 3.92559 14.1224 3.39767C14.0443 3.03188 13.8909 2.68725 13.6726 2.38663C13.4543 2.086 13.1759 1.83625 12.856 1.65392C12.3835 1.38783 11.8346 1.29993 11.3052 1.40557C10.4005 0.508022 9.19046 0.00416552 7.92971 0H5.70695C4.63037 0.0256999 3.58961 0.400362 2.73485 1.06993C1.88008 1.73949 1.25551 2.66933 0.95126 3.72529L0.0207992 6.98558C-0.00223962 7.06607 -0.00620446 7.15101 0.00923254 7.23338C0.0246695 7.31575 0.059065 7.39318 0.109575 7.45927C0.160085 7.52536 0.225259 7.57821 0.299708 7.61345C0.374158 7.64869 0.455744 7.66531 0.537722 7.66194ZM17.7409 4.03705C17.98 3.19675 18.4736 2.45558 19.1507 1.92009C19.8278 1.38459 20.6535 1.08235 21.5093 1.05682H23.7217C24.2533 1.06065 24.7781 1.17831 25.2625 1.4022C25.7468 1.62609 26.1799 1.95125 26.5338 2.35671C26.6031 2.43346 26.6932 2.48748 26.7925 2.51193C26.8919 2.53638 26.9961 2.53018 27.092 2.49409C27.2606 2.43346 27.4397 2.40966 27.6177 2.42423C27.7958 2.43879 27.9689 2.49139 28.1259 2.57864C28.318 2.68974 28.4847 2.84149 28.6149 3.02374C28.745 3.20599 28.8356 3.41454 28.8806 3.63546C28.9726 4.00806 28.9819 4.397 28.9076 4.77373C28.8334 5.15046 28.6775 5.5054 28.4515 5.81251C28.2661 6.06218 28.0271 6.26493 27.7528 6.40512C27.4785 6.5453 27.1764 6.61915 26.8698 6.62097H23.8406L22.6775 4.87194C22.6379 4.80513 22.5843 4.74812 22.5206 4.70502C22.4569 4.66192 22.3846 4.6338 22.309 4.62268C22.2333 4.61156 22.1562 4.61772 22.0832 4.64072C22.0102 4.66372 21.943 4.70299 21.8866 4.75569L20.0619 6.60512H17.012L17.7409 4.03705ZM18.8161 8.90899V7.66194H20.2738C20.4094 7.66136 20.5394 7.60632 20.6357 7.5087L22.1864 5.97103L23.1531 7.42944C23.2005 7.50115 23.2644 7.55986 23.3392 7.6004C23.414 7.64094 23.4975 7.66207 23.5821 7.66194H26.8749H27.0093V9.12564C27.0097 9.66459 26.9041 10.1981 26.699 10.6946C26.4939 11.1911 26.1934 11.6405 25.8152 12.016C25.0684 12.7578 24.0752 13.1843 23.0342 13.2102C22.496 13.2241 21.9607 13.1263 21.4605 12.9229C20.9604 12.7195 20.5057 12.4146 20.1239 12.0266C19.7141 11.6219 19.3874 11.1378 19.1628 10.6025C18.9383 10.0671 18.8204 9.49142 18.8161 8.90899V8.90899ZM11.2018 9.11507C11.2022 9.65402 11.0966 10.1876 10.8915 10.6841C10.6864 11.1805 10.3859 11.6299 10.0077 12.0055C9.27029 12.7438 8.28936 13.1736 7.25772 13.2102C6.7196 13.2238 6.18437 13.1259 5.68423 12.9225C5.18409 12.7191 4.72937 12.4143 4.34744 12.0266C3.93764 11.6219 3.6109 11.1378 3.38634 10.6025C3.16178 10.0671 3.04391 9.49142 3.03963 8.90899V7.66194H6.83384C6.91106 7.66221 6.98737 7.64479 7.05714 7.61095C7.12692 7.57712 7.18839 7.52773 7.23704 7.46643L9.03076 5.19427L10.0077 7.35546C10.0493 7.44718 10.1157 7.52481 10.199 7.57913C10.2824 7.63345 10.3793 7.66219 10.4781 7.66194H11.0829H11.2225L11.2018 9.11507ZM1.94892 4.03705C2.18745 3.19842 2.67947 2.45846 3.35451 1.92313C4.02956 1.3878 4.85301 1.08455 5.70695 1.05682H7.92971C8.46127 1.06065 8.98613 1.17831 9.47048 1.4022C9.95482 1.62609 10.3879 1.95125 10.7418 2.35671C10.8111 2.43346 10.9012 2.48748 11.0005 2.51193C11.0999 2.53638 11.2041 2.53018 11.3001 2.49409C11.4686 2.43346 11.6477 2.40966 11.8257 2.42423C12.0038 2.43879 12.1769 2.49139 12.3339 2.57864C12.526 2.68974 12.6927 2.84149 12.8229 3.02374C12.953 3.20599 13.0436 3.41454 13.0886 3.63546C13.1747 4.0088 13.1781 4.39709 13.0985 4.77194C13.0189 5.14678 12.8583 5.4987 12.6285 5.80194C12.4431 6.05161 12.2041 6.25437 11.9298 6.39455C11.6555 6.53473 11.3534 6.60859 11.0468 6.6104H10.7728L9.58904 3.96836C9.55238 3.88629 9.49578 3.81519 9.42463 3.76181C9.35347 3.70844 9.27014 3.67458 9.18256 3.66346C9.09498 3.65233 9.00607 3.66431 8.9243 3.69826C8.84253 3.73221 8.77063 3.78699 8.71544 3.85739L6.57538 6.60512H1.22523L1.94892 4.03705Z" fill="#E5E5E5"/>
</svg>
