<svg width="24" height="24" viewBox="0 0 24 24" fill="none" xmlns="http://www.w3.org/2000/svg">
<path d="M17.7348 10.939H13.0863V6.29054C13.0863 5.70949 12.6063 5.22949 12.0253 5.22949C11.4442 5.22949 10.9642 5.70949 10.9642 6.29054V10.939H6.31581C5.73476 10.939 5.25476 11.419 5.25476 12C5.25476 12.3032 5.38108 12.5558 5.55792 12.7579C5.76002 12.96 6.01266 13.0611 6.31581 13.0611H10.9642V17.7095C10.9642 18.0126 11.0906 18.2653 11.2674 18.4674C11.4442 18.6695 11.7221 18.7705 12.0253 18.7705C12.6063 18.7705 13.0863 18.2905 13.0863 17.7095V13.0611H17.7348C18.3158 13.0611 18.7958 12.5811 18.7958 12C18.7958 11.419 18.3158 10.939 17.7348 10.939Z" fill="#E5E5E5" fill-opacity="0.9"/>
<path d="M16.8 0H7.2C3.23368 0 0 3.23368 0 7.2V16.8C0 20.7663 3.23368 24 7.2 24H16.8C20.7663 24 24 20.7663 24 16.8V7.2C24 3.23368 20.7663 0 16.8 0ZM21.8526 16.8C21.8526 19.5789 19.5789 21.8526 16.8 21.8526H7.2C4.42105 21.8526 2.14737 19.5789 2.14737 16.8V7.2C2.14737 4.42105 4.42105 2.14737 7.2 2.14737H16.8C19.5789 2.14737 21.8526 4.42105 21.8526 7.2V16.8Z" fill="#E5E5E5" fill-opacity="0.9"/>
</svg>
